<svg width="24" height="24" viewBox="0 0 24 24" fill="none" xmlns="http://www.w3.org/2000/svg">
<path d="M18 10.997C17.6078 10.1968 16.5481 9.02147 14.3704 9.07148C14.3704 9.07148 12.6432 8.99646 10.6907 8.99646C8.7382 8.99646 7.82413 9.04218 6.26004 9.07148C5.25876 9.04647 3.35634 9.27153 2.48022 11.3471C1.90449 13.0976 1.87946 16.7736 2.22991 18.6241C2.305 19.5743 2.80564 20.8997 4.35762 21.5999C5.30883 22.1 6.83578 21.9 7.98724 22M5.98469 8.19624C5.93463 5.82059 5.8345 3.94508 8.58801 2.39466C9.51419 2.01956 10.8909 1.69447 12.5931 2.49469C14.3704 3.56998 14.5917 4.70796 14.7459 4.99537C15.1714 6.12068 14.9461 7.72111 14.9962 8.37129" stroke="#242424" stroke-width="1.5" stroke-linecap="round"/>
<path d="M15.5 19.7351C15.5 20.9792 14.4911 21.9656 13.2553 21.9656C12.0194 21.9656 11 20.9792 11 19.7351C11 18.4911 12.0194 17.4915 13.2553 17.4915C14.4911 17.4915 15.5 18.4911 15.5 19.7351Z" stroke="#242424" stroke-width="1.5"/>
<path d="M15.2246 17.7906L17.2151 15.8479M21.9996 15.8479L20.3726 14.3086C19.5996 13.5689 18.9496 14.2146 18.626 14.4903L17.2151 15.8479M17.2151 15.8479L18.8246 17.3933" stroke="#242424" stroke-width="1.5" stroke-linecap="round"/>
</svg>
