<svg width="44" height="44" viewBox="0 0 44 44" fill="none" xmlns="http://www.w3.org/2000/svg">
<rect x="2.12326" y="2.12326" width="38.9276" height="38.9276" rx="10.2627" fill="#01CA47" stroke="white" stroke-width="4.24665"/>
<path d="M20.2034 19.5054C20.2034 21.0181 20.2021 22.5308 20.2046 24.0441C20.2052 24.2899 20.2082 24.5362 20.2301 24.7807C20.2593 25.1159 20.3864 25.406 20.6954 25.5787C20.8992 25.6925 21.1255 25.7527 21.356 25.7624C21.8115 25.7825 22.2677 25.7922 22.7233 25.7934C24.0639 25.7971 25.4044 25.7947 26.745 25.7934C26.8624 25.7934 26.9761 25.8013 27.0808 25.8664C27.2042 25.9431 27.2602 26.0586 27.2657 26.1961C27.2742 26.4035 27.2742 26.6115 27.2742 26.8195C27.2748 27.4454 27.2748 28.0713 27.2724 28.6972C27.2718 28.7878 27.2736 28.8827 27.248 28.9679C27.1823 29.1856 27.0315 29.2629 26.7931 29.2677C26.4737 29.2744 26.1544 29.2695 25.8351 29.2695C24.2159 29.2683 22.5968 29.2738 20.9776 29.2616C20.5458 29.2586 20.1121 29.2185 19.6833 29.1643C19.19 29.1023 18.7162 28.9575 18.2716 28.7264C17.9109 28.539 17.5861 28.3073 17.3227 27.9965C17.139 27.7794 16.9797 27.5427 16.8884 27.2727C16.8166 27.0604 16.7735 26.8384 16.7285 26.6182C16.6098 26.0392 16.605 25.4516 16.605 24.864C16.6056 21.7748 16.6062 18.6861 16.608 15.5968C16.608 15.4886 16.6165 15.3791 16.6311 15.2714C16.6536 15.0999 16.7692 14.9947 16.9194 14.9393C17.42 14.7562 17.9249 14.5847 18.4273 14.4047C18.7557 14.2873 19.0811 14.1626 19.409 14.0434C19.5325 13.9984 19.6553 13.9515 19.7824 13.9193C20.0343 13.8548 20.2003 13.9832 20.204 14.2441C20.2082 14.561 20.2064 14.8773 20.2064 15.1942C20.2064 16.6308 20.2064 18.0675 20.2064 19.5048C20.204 19.5054 20.204 19.5054 20.2034 19.5054Z" fill="white"/>
</svg>
