<svg width="44" height="44" viewBox="0 0 44 44" fill="none" xmlns="http://www.w3.org/2000/svg">
<rect x="2.12375" y="2.12326" width="38.9276" height="38.9276" rx="10.2627" fill="#01CA47" stroke="white" stroke-width="4.24665"/>
<path d="M20.2038 19.5054C20.2038 21.0181 20.2026 22.5308 20.2051 24.0441C20.2057 24.2899 20.2087 24.5362 20.2306 24.7807C20.2598 25.1159 20.3869 25.406 20.6959 25.5787C20.8997 25.6925 21.1259 25.7527 21.3565 25.7624C21.812 25.7825 22.2682 25.7922 22.7238 25.7934C24.0644 25.7971 25.4049 25.7947 26.7455 25.7934C26.8629 25.7934 26.9766 25.8013 27.0813 25.8664C27.2047 25.9431 27.2607 26.0586 27.2662 26.1961C27.2747 26.4035 27.2747 26.6115 27.2747 26.8195C27.2753 27.4454 27.2753 28.0713 27.2729 28.6972C27.2722 28.7878 27.2741 28.8827 27.2485 28.9679C27.1828 29.1856 27.032 29.2629 26.7936 29.2677C26.4742 29.2744 26.1549 29.2695 25.8356 29.2695C24.2164 29.2683 22.5973 29.2738 20.9781 29.2616C20.5463 29.2586 20.1126 29.2185 19.6838 29.1643C19.1905 29.1023 18.7167 28.9575 18.2721 28.7264C17.9114 28.539 17.5866 28.3073 17.3232 27.9965C17.1395 27.7794 16.9801 27.5427 16.8889 27.2727C16.8171 27.0604 16.774 26.8384 16.7289 26.6182C16.6103 26.0392 16.6055 25.4516 16.6055 24.864C16.6061 21.7748 16.6067 18.6861 16.6085 15.5968C16.6085 15.4886 16.617 15.3791 16.6316 15.2714C16.6541 15.0999 16.7697 14.9947 16.9199 14.9393C17.4205 14.7562 17.9254 14.5847 18.4278 14.4047C18.7562 14.2873 19.0816 14.1626 19.4095 14.0434C19.5329 13.9984 19.6558 13.9515 19.7829 13.9193C20.0347 13.8548 20.2008 13.9832 20.2044 14.2441C20.2087 14.561 20.2069 14.8773 20.2069 15.1942C20.2069 16.6308 20.2069 18.0675 20.2069 19.5048C20.2044 19.5054 20.2044 19.5054 20.2038 19.5054Z" fill="white"/>
</svg>
