<svg width="68" height="98" viewBox="0 0 68 98" fill="none" xmlns="http://www.w3.org/2000/svg">
<path d="M45.0666 62.2405C45.0666 52.5996 45.0743 42.9587 45.0588 33.314C45.055 31.7479 45.0356 30.1779 44.896 28.6195C44.7099 26.4836 43.8997 24.6345 41.9305 23.5335C40.6319 22.8086 39.1898 22.4249 37.7206 22.3628C34.8171 22.2349 31.9097 22.1729 29.0062 22.1651C20.4624 22.1419 11.9185 22.1574 3.37472 22.1651C2.62656 22.1651 1.90165 22.1147 1.23489 21.6999C0.447959 21.2115 0.0913154 20.475 0.0564262 19.5989C0.00215845 18.277 0.0021662 16.9512 0.00216632 15.6255C-0.00170907 11.6365 -0.00170872 7.64762 0.0137946 3.65869C0.0176703 3.08109 0.00603557 2.47634 0.168855 1.93363C0.587518 0.545839 1.5489 0.0535297 3.06848 0.0225163C5.10365 -0.0201242 7.13882 0.0108895 9.17399 0.0108896C19.4933 0.018642 29.8125 -0.0162463 40.1318 0.0612845C42.8841 0.080671 45.6481 0.336523 48.381 0.681532C51.5248 1.07693 54.5446 1.99953 57.3784 3.47261C59.6771 4.66657 61.7472 6.14352 63.4257 8.12442C64.5964 9.50833 65.6121 11.0163 66.1936 12.7375C66.651 14.0904 66.9262 15.5053 67.2131 16.9086C67.969 20.599 68 24.3437 68 28.0884C67.9961 47.7772 67.9922 67.4621 67.9806 87.1509C67.9806 87.841 67.9263 88.5387 67.8333 89.2249C67.6899 90.318 66.9533 90.9887 65.9958 91.3414C62.8055 92.5083 59.588 93.6014 56.386 94.7489C54.2927 95.4971 52.2187 96.2917 50.1293 97.0515C49.3424 97.3384 48.5593 97.6369 47.7491 97.8423C46.1442 98.2533 45.086 97.4353 45.0627 95.7723C45.0356 93.7526 45.0472 91.7368 45.0472 89.7172C45.0472 80.5609 45.0472 71.4046 45.0472 62.2444C45.0627 62.2405 45.0627 62.2405 45.0666 62.2405Z" fill="#01CA47" fill-opacity="0.15"/>
</svg>
