<svg width="68" height="98" viewBox="0 0 68 98" fill="none" xmlns="http://www.w3.org/2000/svg">
<path d="M22.9334 35.7068C22.9334 45.3477 22.9257 54.9885 22.9412 64.6333C22.9451 66.1994 22.9644 67.7694 23.104 69.3277C23.2901 71.4637 24.1003 73.3128 26.0695 74.4137C27.3682 75.1386 28.8102 75.5224 30.2794 75.5844C33.1829 75.7123 36.0903 75.7744 38.9938 75.7821C47.5376 75.8054 56.0815 75.7899 64.6253 75.7821C65.3735 75.7821 66.0984 75.8325 66.7651 76.2473C67.552 76.7358 67.9087 77.4723 67.9436 78.3484C67.9978 79.6703 67.9978 80.996 67.9978 82.3218C68.0017 86.3107 68.0017 90.2996 67.9862 94.2886C67.9823 94.8662 67.994 95.4709 67.8312 96.0136C67.4125 97.4014 66.4511 97.8937 64.9315 97.9247C62.8964 97.9674 60.8612 97.9364 58.826 97.9364C48.5068 97.9286 38.1875 97.9635 27.8682 97.886C25.1159 97.8666 22.352 97.6107 19.619 97.2657C16.4752 96.8703 13.4554 95.9477 10.6216 94.4747C8.32286 93.2807 6.25281 91.8037 4.57428 89.8228C3.40358 88.4389 2.38793 86.931 1.80645 85.2098C1.34902 83.8569 1.07379 82.442 0.786931 81.0387C0.0310116 77.3482 0 73.6035 0 69.8588C0.00387651 50.17 0.0077542 30.4851 0.0193837 10.7963C0.0193837 10.1063 0.0736508 9.40854 0.166687 8.7224C0.310118 7.62922 1.04666 6.95859 2.00415 6.60582C5.19452 5.43899 8.41202 4.34582 11.614 3.19837C13.7073 2.45021 15.7813 1.65552 17.8707 0.895728C18.6576 0.608866 19.4407 0.310374 20.2509 0.104919C21.8558 -0.305991 22.914 0.511951 22.9373 2.17497C22.9644 4.19463 22.9528 6.21042 22.9528 8.23008C22.9528 17.3864 22.9528 26.5427 22.9528 35.7029C22.9373 35.7068 22.9373 35.7068 22.9334 35.7068Z" fill="#01CA47" fill-opacity="0.15"/>
</svg>
