<svg width="164" height="216" viewBox="0 0 164 216" fill="none" xmlns="http://www.w3.org/2000/svg">
<path d="M97.3477 239.198C151.111 239.198 194.695 195.613 194.695 141.85C194.695 105.178 170.529 69.7697 148.086 44.521C136.669 31.6764 125.277 20.9996 116.749 13.5376C112.479 9.80144 107.172 5.28345 102.354 1.66943C100.01 -0.0879669 96.9174 -0.488556 94.2041 0.614746C91.4909 1.71803 89.5554 4.1633 89.1035 7.05713C85.351 31.093 81.7848 44.7018 71.7441 63.8286C69.8246 62.5562 68.4899 61.3488 67.3945 60.0649C65.1706 57.4581 63.366 53.8994 60.5928 46.9663C59.5188 44.2813 57.1309 42.3432 54.2822 41.8452C51.4338 41.3473 48.5306 42.3598 46.6094 44.521C24.166 69.7697 0 105.178 0 141.85C0.000189672 195.614 43.5841 239.198 97.3477 239.198ZM63.9688 130.724C57.8246 130.724 52.8439 125.743 52.8438 119.599C52.8438 113.455 57.8245 108.473 63.9688 108.473H64.0889C70.2333 108.473 75.2139 113.455 75.2139 119.599C75.2137 125.743 70.2332 130.724 64.0889 130.724H63.9688ZM71.8369 194.218C67.4922 198.563 60.4482 198.563 56.1035 194.218C51.7588 189.874 51.7589 182.83 56.1035 178.485L122.856 111.732C127.201 107.387 134.245 107.387 138.59 111.732C142.934 116.077 142.934 123.121 138.59 127.465L71.8369 194.218ZM130.603 197.477C124.458 197.477 119.477 192.495 119.477 186.351C119.477 180.207 124.458 175.226 130.603 175.226H130.722C136.866 175.226 141.847 180.207 141.848 186.351C141.848 192.495 136.866 197.477 130.722 197.477H130.603Z" fill="#01CA47"/>
</svg>
